<svg width="21" height="20" viewBox="0 0 21 20" fill="none" xmlns="http://www.w3.org/2000/svg">
<g clip-path="url(#clip0_1_115)">
<path d="M20.3989 10C20.3989 4.47719 15.9217 0 10.3989 0C4.87611 0 0.398926 4.47711 0.398926 10C0.398926 14.9912 4.0558 19.1284 8.83643 19.8785V12.8906H6.29736V10H8.83643V7.79688C8.83643 5.29063 10.3294 3.90625 12.6135 3.90625C13.7077 3.90625 14.8521 4.10156 14.8521 4.10156V6.5625H13.5911C12.3488 6.5625 11.9614 7.33336 11.9614 8.12422V10H14.7349L14.2915 12.8906H11.9614V19.8785C16.7421 19.1284 20.3989 14.9913 20.3989 10Z" fill="#1877F2"/>
<path d="M14.2915 12.8906L14.7349 10H11.9614V8.12422C11.9614 7.33328 12.3488 6.5625 13.5911 6.5625H14.8521V4.10156C14.8521 4.10156 13.7077 3.90625 12.6135 3.90625C10.3294 3.90625 8.83643 5.29063 8.83643 7.79688V10H6.29736V12.8906H8.83643V19.8785C9.35331 19.9595 9.87573 20.0001 10.3989 20C10.9221 20.0002 11.4445 19.9595 11.9614 19.8785V12.8906H14.2915Z" fill="white"/>
</g>
<defs>
<clipPath id="clip0_1_115">
<rect width="20" height="20" fill="white" transform="translate(0.398926)"/>
</clipPath>
</defs>
</svg>
