<svg width="21" height="20" viewBox="0 0 21 20" fill="none" xmlns="http://www.w3.org/2000/svg">
<path d="M20.1433 4.07628C20.0905 4.0129 20.0244 3.96191 19.9497 3.92692C19.875 3.89192 19.7936 3.87378 19.7111 3.87378H4.42984L3.94515 1.2019C3.89024 0.899322 3.73082 0.62563 3.49471 0.428588C3.2586 0.231547 2.9608 0.123669 2.65328 0.123779H0.96109C0.811906 0.123779 0.668832 0.183043 0.563343 0.288532C0.457853 0.394021 0.39859 0.537095 0.39859 0.686279C0.39859 0.835464 0.457853 0.978538 0.563343 1.08403C0.668832 1.18952 0.811906 1.24878 0.96109 1.24878H2.64859C2.69299 1.24806 2.7362 1.26311 2.77054 1.29127C2.80487 1.31942 2.8281 1.35885 2.83609 1.40253L5.22765 14.5557C5.30351 14.9752 5.50795 15.3608 5.81265 15.6591C5.44471 15.9534 5.16995 16.348 5.02162 16.7952C4.87328 17.2424 4.85773 17.723 4.97685 18.1789C5.09598 18.6347 5.34466 19.0463 5.69281 19.3637C6.04096 19.6812 6.47366 19.891 6.93853 19.9676C7.40341 20.0443 7.88055 19.9846 8.3122 19.7957C8.74385 19.6069 9.11152 19.297 9.3707 18.9035C9.62989 18.51 9.76949 18.0499 9.77261 17.5787C9.77573 17.1076 9.64223 16.6456 9.38828 16.2488H14.2839C13.9924 16.7049 13.8611 17.2452 13.9106 17.7843C13.9601 18.3233 14.1877 18.8306 14.5574 19.226C14.9271 19.6214 15.418 19.8825 15.9525 19.9681C16.4871 20.0537 17.0349 19.9589 17.5096 19.6987C17.9843 19.4385 18.3588 19.0276 18.5742 18.5309C18.7895 18.0343 18.8334 17.48 18.6989 16.9557C18.5644 16.4313 18.2592 15.9666 17.8313 15.6349C17.4035 15.3032 16.8774 15.1234 16.3361 15.1238H7.25828C7.03872 15.1238 6.82612 15.0468 6.65753 14.9061C6.48895 14.7655 6.37508 14.5701 6.33578 14.3541L5.99828 12.4988H17.0955C17.5785 12.4989 18.0462 12.3295 18.4172 12.0201C18.7881 11.7107 19.0386 11.2809 19.1252 10.8057L20.2642 4.53659C20.2789 4.45569 20.2757 4.37254 20.2548 4.29301C20.2339 4.21348 20.1959 4.1395 20.1433 4.07628ZM8.64859 17.5613C8.64859 17.8209 8.57161 18.0746 8.42739 18.2905C8.28317 18.5063 8.07819 18.6745 7.83836 18.7739C7.59853 18.8732 7.33463 18.8992 7.08003 18.8486C6.82543 18.7979 6.59157 18.6729 6.40801 18.4894C6.22446 18.3058 6.09945 18.0719 6.04881 17.8173C5.99817 17.5627 6.02416 17.2988 6.1235 17.059C6.22284 16.8192 6.39106 16.6142 6.6069 16.47C6.82274 16.3258 7.0765 16.2488 7.33609 16.2488C7.68419 16.2488 8.01803 16.3871 8.26417 16.6332C8.51031 16.8793 8.64859 17.2132 8.64859 17.5613ZM17.6486 17.5613C17.6486 17.8209 17.5716 18.0746 17.4274 18.2905C17.2832 18.5063 17.0782 18.6745 16.8384 18.7739C16.5985 18.8732 16.3346 18.8992 16.08 18.8486C15.8254 18.7979 15.5916 18.6729 15.408 18.4894C15.2245 18.3058 15.0995 18.0719 15.0488 17.8173C14.9982 17.5627 15.0242 17.2988 15.1235 17.059C15.2228 16.8192 15.3911 16.6142 15.6069 16.47C15.8227 16.3258 16.0765 16.2488 16.3361 16.2488C16.6842 16.2488 17.018 16.3871 17.2642 16.6332C17.5103 16.8793 17.6486 17.2132 17.6486 17.5613ZM18.018 10.6041C17.9787 10.8201 17.8648 11.0155 17.6962 11.1561C17.5276 11.2968 17.315 11.3738 17.0955 11.3738H5.7939L4.63515 4.99878H19.037L18.018 10.6041Z" fill="#001C30"/>
</svg>
