<svg width="21" height="18" viewBox="0 0 21 18" fill="none" xmlns="http://www.w3.org/2000/svg">
<path d="M15.3814 0C13.4723 0 11.8123 0.906583 10.8359 2.42585C9.85957 0.906583 8.19957 0 6.29048 0C4.84436 0.00177354 3.45796 0.607505 2.4354 1.68432C1.41284 2.76113 0.837622 4.22109 0.835938 5.74393C0.835938 8.5393 2.49048 11.4486 5.75412 14.3895C7.24962 15.7314 8.86504 16.9177 10.5778 17.9316C10.6571 17.9765 10.7458 18 10.8359 18C10.926 18 11.0147 17.9765 11.0941 17.9316C12.8068 16.9177 14.4223 15.7314 15.9178 14.3895C19.1814 11.4486 20.8359 8.5393 20.8359 5.74393C20.8343 4.22109 20.259 2.76113 19.2365 1.68432C18.2139 0.607505 16.8275 0.00177354 15.3814 0ZM10.8359 16.7636C9.34412 15.8571 1.92685 11.0781 1.92685 5.74393C1.92805 4.52561 2.38818 3.35755 3.20626 2.49607C4.02434 1.63459 5.13354 1.15005 6.29048 1.14879C8.13412 1.14879 9.6823 2.18556 10.3314 3.85513C10.3725 3.96048 10.4424 4.05059 10.5322 4.114C10.6221 4.17742 10.7278 4.21127 10.8359 4.21127C10.9441 4.21127 11.0498 4.17742 11.1396 4.114C11.2295 4.05059 11.2994 3.96048 11.3405 3.85513C11.9896 2.18556 13.5378 1.14879 15.3814 1.14879C16.5383 1.15005 17.6475 1.63459 18.4656 2.49607C19.2837 3.35755 19.7438 4.52561 19.745 5.74393C19.745 11.0781 12.3278 15.8571 10.8359 16.7636Z" fill="#001C30"/>
</svg>
