<svg width="19" height="18" viewBox="0 0 19 18" fill="none" xmlns="http://www.w3.org/2000/svg">
<path d="M9.33594 10.8C14.3039 10.8 18.3359 12.684 18.3359 15V18H0.335938V15C0.335938 12.684 4.36794 10.8 9.33594 10.8ZM17.1359 15C17.1359 13.344 13.6439 12 9.33594 12C5.02794 12 1.53594 13.344 1.53594 15V16.8H17.1359V15ZM9.33594 0C10.4498 0 11.5181 0.442499 12.3058 1.23015C13.0934 2.0178 13.5359 3.08609 13.5359 4.2C13.5359 5.31391 13.0934 6.3822 12.3058 7.16985C11.5181 7.9575 10.4498 8.4 9.33594 8.4C8.22203 8.4 7.15374 7.9575 6.36609 7.16985C5.57844 6.3822 5.13594 5.31391 5.13594 4.2C5.13594 3.08609 5.57844 2.0178 6.36609 1.23015C7.15374 0.442499 8.22203 0 9.33594 0ZM9.33594 1.2C8.54029 1.2 7.77723 1.51607 7.21462 2.07868C6.65201 2.64129 6.33594 3.40435 6.33594 4.2C6.33594 4.99565 6.65201 5.75871 7.21462 6.32132C7.77723 6.88393 8.54029 7.2 9.33594 7.2C10.1316 7.2 10.8946 6.88393 11.4573 6.32132C12.0199 5.75871 12.3359 4.99565 12.3359 4.2C12.3359 3.40435 12.0199 2.64129 11.4573 2.07868C10.8946 1.51607 10.1316 1.2 9.33594 1.2Z" fill="#001C30"/>
</svg>
