<svg width="19" height="19" viewBox="0 0 19 19" fill="none" xmlns="http://www.w3.org/2000/svg">
<g clip-path="url(#clip0_1_211)">
<path d="M1.30544 9.14364C1.30504 10.5767 1.68241 11.976 2.39998 13.2093L1.23682 17.4233L5.583 16.2926C6.78509 16.9419 8.13195 17.2822 9.50064 17.2822H9.50423C14.0225 17.2822 17.7005 13.6341 17.7024 9.15005C17.7033 6.97721 16.8513 4.93402 15.3033 3.39683C13.7555 1.85977 11.6971 1.01283 9.5039 1.01184C4.98509 1.01184 1.30737 4.65979 1.30551 9.14364" fill="url(#paint0_linear_1_211)"/>
<path d="M1.01123 9.14101C1.01077 10.6256 1.40166 12.075 2.14482 13.3525L0.939941 17.7175L5.44196 16.5463C6.68241 17.2173 8.07904 17.5712 9.50018 17.5717H9.50385C14.1842 17.5717 17.9943 13.7923 17.9963 9.14775C17.9971 6.89683 17.1145 4.78019 15.5112 3.18793C13.9077 1.59587 11.7756 0.718455 9.50385 0.717529C4.82267 0.717529 1.0131 4.49638 1.01123 9.14101ZM3.69228 13.1325L3.52418 12.8677C2.81754 11.7528 2.44457 10.4645 2.4451 9.14154C2.44663 5.28104 5.61299 2.14022 9.50651 2.14022C11.392 2.14101 13.164 2.87034 14.4968 4.1936C15.8296 5.51699 16.5629 7.27617 16.5625 9.14722C16.5607 13.0077 13.3943 16.1489 9.50385 16.1489H9.50105C8.23428 16.1483 6.99189 15.8107 5.90841 15.1728L5.65057 15.0211L2.97898 15.7161L3.69228 13.1324V13.1325Z" fill="url(#paint1_linear_1_211)"/>
<path d="M7.38262 5.61937C7.22365 5.26879 7.05635 5.26172 6.90517 5.25557C6.78138 5.25028 6.63987 5.25068 6.49849 5.25068C6.35697 5.25068 6.12704 5.3035 5.93269 5.51406C5.73814 5.72482 5.18994 6.23413 5.18994 7.27001C5.18994 8.30595 5.95035 9.30706 6.05635 9.44767C6.16249 9.58803 7.52433 11.7818 9.68117 12.6258C11.4737 13.3271 11.8385 13.1876 12.2275 13.1525C12.6166 13.1174 13.483 12.6433 13.6598 12.1516C13.8367 11.66 13.8367 11.2387 13.7836 11.1506C13.7306 11.0629 13.5891 11.0102 13.3769 10.9049C13.1646 10.7996 12.1214 10.2902 11.9269 10.22C11.7323 10.1498 11.5909 10.1147 11.4494 10.3255C11.3079 10.536 10.9015 11.0102 10.7776 11.1506C10.6539 11.2913 10.5301 11.3089 10.3179 11.2036C10.1056 11.0979 9.42219 10.8758 8.61141 10.1586C7.98059 9.60052 7.55472 8.91132 7.43092 8.7005C7.30713 8.49 7.41767 8.3759 7.52407 8.27098C7.61941 8.17664 7.73634 8.02512 7.84254 7.90222C7.94835 7.77925 7.98366 7.69153 8.05442 7.55111C8.12524 7.41056 8.08979 7.28759 8.03683 7.18228C7.98366 7.07697 7.57131 6.03567 7.38262 5.61937Z" fill="white"/>
</g>
<defs>
<linearGradient id="paint0_linear_1_211" x1="824.517" y1="1642.16" x2="824.517" y2="1.01184" gradientUnits="userSpaceOnUse">
<stop stop-color="#1FAF38"/>
<stop offset="1" stop-color="#60D669"/>
</linearGradient>
<linearGradient id="paint1_linear_1_211" x1="853.759" y1="1700.72" x2="853.759" y2="0.717529" gradientUnits="userSpaceOnUse">
<stop stop-color="#F9F9F9"/>
<stop offset="1" stop-color="white"/>
</linearGradient>
<clipPath id="clip0_1_211">
<rect width="18" height="18" fill="white" transform="translate(0.398926 0.217529)"/>
</clipPath>
</defs>
</svg>
